<svg xmlns="http://www.w3.org/2000/svg" xmlns:xlink="http://www.w3.org/1999/xlink" width="6912" zoomAndPan="magnify" viewBox="0 0 5184 2592.000001" height="3456" preserveAspectRatio="xMidYMid meet" version="1.0"><defs><g/><clipPath id="82e3952da5"><path d="M 1340.554688 860.292969 L 1685.023438 860.292969 L 1685.023438 1204.765625 L 1340.554688 1204.765625 Z M 1340.554688 860.292969 " clip-rule="nonzero"/></clipPath><clipPath id="963bb39faa"><path d="M 1512.789062 860.292969 C 1417.667969 860.292969 1340.554688 937.40625 1340.554688 1032.527344 C 1340.554688 1127.652344 1417.667969 1204.765625 1512.789062 1204.765625 C 1607.914062 1204.765625 1685.023438 1127.652344 1685.023438 1032.527344 C 1685.023438 937.40625 1607.914062 860.292969 1512.789062 860.292969 Z M 1512.789062 860.292969 " clip-rule="nonzero"/></clipPath><clipPath id="13101fda5f"><path d="M 1184.65625 704.394531 L 1496.449219 704.394531 L 1496.449219 1016.191406 L 1184.65625 1016.191406 Z M 1184.65625 704.394531 " clip-rule="nonzero"/></clipPath><clipPath id="de8b8fe385"><path d="M 1340.554688 704.394531 C 1254.453125 704.394531 1184.65625 774.191406 1184.65625 860.292969 C 1184.65625 946.390625 1254.453125 1016.191406 1340.554688 1016.191406 C 1426.652344 1016.191406 1496.449219 946.390625 1496.449219 860.292969 C 1496.449219 774.191406 1426.652344 704.394531 1340.554688 704.394531 Z M 1340.554688 704.394531 " clip-rule="nonzero"/></clipPath><clipPath id="163e881185"><path d="M 1529.128906 704.394531 L 1840.921875 704.394531 L 1840.921875 1016.191406 L 1529.128906 1016.191406 Z M 1529.128906 704.394531 " clip-rule="nonzero"/></clipPath><clipPath id="ba7585d191"><path d="M 1685.023438 704.394531 C 1598.925781 704.394531 1529.128906 774.191406 1529.128906 860.292969 C 1529.128906 946.390625 1598.925781 1016.191406 1685.023438 1016.191406 C 1771.125 1016.191406 1840.921875 946.390625 1840.921875 860.292969 C 1840.921875 774.191406 1771.125 704.394531 1685.023438 704.394531 Z M 1685.023438 704.394531 " clip-rule="nonzero"/></clipPath><clipPath id="20c3fce9da"><path d="M 1492.757812 1012.496094 L 1532.820312 1012.496094 L 1532.820312 1052.558594 L 1492.757812 1052.558594 Z M 1492.757812 1012.496094 " clip-rule="nonzero"/></clipPath><clipPath id="0ed9c13781"><path d="M 1512.789062 1012.496094 C 1501.726562 1012.496094 1492.757812 1021.464844 1492.757812 1032.527344 C 1492.757812 1043.589844 1501.726562 1052.558594 1512.789062 1052.558594 C 1523.851562 1052.558594 1532.820312 1043.589844 1532.820312 1032.527344 C 1532.820312 1021.464844 1523.851562 1012.496094 1512.789062 1012.496094 Z M 1512.789062 1012.496094 " clip-rule="nonzero"/></clipPath><clipPath id="2082a0f12b"><path d="M 1608.679688 860.292969 L 1648.742188 860.292969 L 1648.742188 900.355469 L 1608.679688 900.355469 Z M 1608.679688 860.292969 " clip-rule="nonzero"/></clipPath><clipPath id="92e847582d"><path d="M 1628.710938 860.292969 C 1617.648438 860.292969 1608.679688 869.261719 1608.679688 880.324219 C 1608.679688 891.386719 1617.648438 900.355469 1628.710938 900.355469 C 1639.773438 900.355469 1648.742188 891.386719 1648.742188 880.324219 C 1648.742188 869.261719 1639.773438 860.292969 1628.710938 860.292969 Z M 1628.710938 860.292969 " clip-rule="nonzero"/></clipPath><clipPath id="3a8ee248f0"><path d="M 1320.523438 860.292969 L 1360.585938 860.292969 L 1360.585938 900.355469 L 1320.523438 900.355469 Z M 1320.523438 860.292969 " clip-rule="nonzero"/></clipPath><clipPath id="1f2d001480"><path d="M 1340.554688 860.292969 C 1329.492188 860.292969 1320.523438 869.261719 1320.523438 880.324219 C 1320.523438 891.386719 1329.492188 900.355469 1340.554688 900.355469 C 1351.617188 900.355469 1360.585938 891.386719 1360.585938 880.324219 C 1360.585938 869.261719 1351.617188 860.292969 1340.554688 860.292969 Z M 1340.554688 860.292969 " clip-rule="nonzero"/></clipPath></defs><g clip-path="url(#82e3952da5)"><g clip-path="url(#963bb39faa)"><path fill="#000000" d="M 1340.554688 860.292969 L 1685.023438 860.292969 L 1685.023438 1204.765625 L 1340.554688 1204.765625 Z M 1340.554688 860.292969 " fill-opacity="1" fill-rule="nonzero"/></g></g><g clip-path="url(#13101fda5f)"><g clip-path="url(#de8b8fe385)"><path fill="#000000" d="M 1184.65625 704.394531 L 1496.449219 704.394531 L 1496.449219 1016.191406 L 1184.65625 1016.191406 Z M 1184.65625 704.394531 " fill-opacity="1" fill-rule="nonzero"/></g></g><g clip-path="url(#163e881185)"><g clip-path="url(#ba7585d191)"><path fill="#000000" d="M 1529.128906 704.394531 L 1840.921875 704.394531 L 1840.921875 1016.191406 L 1529.128906 1016.191406 Z M 1529.128906 704.394531 " fill-opacity="1" fill-rule="nonzero"/></g></g><g fill="#ffffff" fill-opacity="1"><g transform="translate(1275.627926, 947.85556)"><g><path d="M 0.671875 -155.265625 L 1.359375 -155.953125 C 13.828125 -155.796875 23.816406 -155.640625 31.328125 -155.484375 C 38.835938 -155.335938 44.957031 -155.265625 49.6875 -155.265625 C 54.425781 -155.265625 58.75 -155.265625 62.65625 -155.265625 C 66.707031 -155.265625 72.222656 -155.300781 79.203125 -155.375 C 86.191406 -155.457031 93.707031 -155.570312 101.75 -155.71875 C 109.789062 -155.875 117.265625 -155.953125 124.171875 -155.953125 L 124.84375 -155.265625 C 124.394531 -151.359375 124.019531 -146.773438 123.71875 -141.515625 C 123.414062 -136.265625 123.265625 -129.359375 123.265625 -120.796875 L 122.59375 -120.109375 L 117.40625 -120.109375 L 116.734375 -121.015625 L 114.9375 -138.140625 C 114.78125 -139.648438 114.585938 -141.003906 114.359375 -142.203125 C 114.140625 -143.398438 113.65625 -144.226562 112.90625 -144.6875 C 112.601562 -144.976562 111.773438 -145.238281 110.421875 -145.46875 C 109.066406 -145.695312 106.738281 -145.960938 103.4375 -146.265625 C 100.4375 -146.554688 96.601562 -146.773438 91.9375 -146.921875 C 87.28125 -147.078125 80.597656 -147.15625 71.890625 -147.15625 C 71.585938 -139.945312 71.398438 -134.125 71.328125 -129.6875 C 71.253906 -125.257812 71.21875 -121.019531 71.21875 -116.96875 L 71.21875 -22.765625 C 71.21875 -16.753906 71.476562 -13.035156 72 -11.609375 C 72.53125 -10.179688 73.171875 -9.164062 73.921875 -8.5625 C 74.671875 -7.957031 76.285156 -7.429688 78.765625 -6.984375 C 81.242188 -6.535156 85.9375 -6.160156 92.84375 -5.859375 L 93.53125 -5.1875 L 93.53125 0 L 92.84375 0.671875 C 88.488281 0.523438 83.644531 0.375 78.3125 0.21875 C 72.976562 0.0703125 68.132812 0 63.78125 0 C 58.664062 0 53.175781 0.0703125 47.3125 0.21875 C 41.457031 0.375 36.578125 0.523438 32.671875 0.671875 L 32 0 L 32 -5.1875 L 32.671875 -5.859375 C 40.335938 -6.160156 45.332031 -6.609375 47.65625 -7.203125 C 49.988281 -7.804688 51.609375 -8.5625 52.515625 -9.46875 C 53.265625 -10.21875 53.75 -11.566406 53.96875 -13.515625 C 54.195312 -15.472656 54.3125 -18.929688 54.3125 -23.890625 L 54.3125 -116.96875 C 54.3125 -119.363281 54.273438 -123.191406 54.203125 -128.453125 C 54.128906 -133.710938 53.941406 -139.945312 53.640625 -147.15625 C 47.472656 -147.15625 42.472656 -147.117188 38.640625 -147.046875 C 34.816406 -146.972656 31.703125 -146.894531 29.296875 -146.8125 C 26.890625 -146.738281 24.5625 -146.554688 22.3125 -146.265625 C 19.300781 -145.960938 17.046875 -145.734375 15.546875 -145.578125 C 14.046875 -145.429688 12.921875 -144.984375 12.171875 -144.234375 C 11.722656 -143.773438 11.421875 -143.171875 11.265625 -142.421875 C 11.117188 -141.671875 10.894531 -140.242188 10.59375 -138.140625 L 8.78125 -120.796875 L 8.109375 -120.109375 L 2.921875 -120.109375 L 2.25 -120.796875 C 2.25 -127.253906 2.171875 -132.4375 2.015625 -136.34375 C 1.867188 -140.25 1.679688 -143.628906 1.453125 -146.484375 C 1.234375 -149.335938 0.972656 -152.265625 0.671875 -155.265625 Z M 0.671875 -155.265625 "/></g></g></g><g fill="#ffffff" fill-opacity="1"><g transform="translate(1447.863662, 1120.091368)"><g><path d="M 0.671875 -155.265625 L 1.359375 -155.953125 C 13.828125 -155.796875 23.816406 -155.640625 31.328125 -155.484375 C 38.835938 -155.335938 44.957031 -155.265625 49.6875 -155.265625 C 54.425781 -155.265625 58.75 -155.265625 62.65625 -155.265625 C 66.707031 -155.265625 72.222656 -155.300781 79.203125 -155.375 C 86.191406 -155.457031 93.707031 -155.570312 101.75 -155.71875 C 109.789062 -155.875 117.265625 -155.953125 124.171875 -155.953125 L 124.84375 -155.265625 C 124.394531 -151.359375 124.019531 -146.773438 123.71875 -141.515625 C 123.414062 -136.265625 123.265625 -129.359375 123.265625 -120.796875 L 122.59375 -120.109375 L 117.40625 -120.109375 L 116.734375 -121.015625 L 114.9375 -138.140625 C 114.78125 -139.648438 114.585938 -141.003906 114.359375 -142.203125 C 114.140625 -143.398438 113.65625 -144.226562 112.90625 -144.6875 C 112.601562 -144.976562 111.773438 -145.238281 110.421875 -145.46875 C 109.066406 -145.695312 106.738281 -145.960938 103.4375 -146.265625 C 100.4375 -146.554688 96.601562 -146.773438 91.9375 -146.921875 C 87.28125 -147.078125 80.597656 -147.15625 71.890625 -147.15625 C 71.585938 -139.945312 71.398438 -134.125 71.328125 -129.6875 C 71.253906 -125.257812 71.21875 -121.019531 71.21875 -116.96875 L 71.21875 -22.765625 C 71.21875 -16.753906 71.476562 -13.035156 72 -11.609375 C 72.53125 -10.179688 73.171875 -9.164062 73.921875 -8.5625 C 74.671875 -7.957031 76.285156 -7.429688 78.765625 -6.984375 C 81.242188 -6.535156 85.9375 -6.160156 92.84375 -5.859375 L 93.53125 -5.1875 L 93.53125 0 L 92.84375 0.671875 C 88.488281 0.523438 83.644531 0.375 78.3125 0.21875 C 72.976562 0.0703125 68.132812 0 63.78125 0 C 58.664062 0 53.175781 0.0703125 47.3125 0.21875 C 41.457031 0.375 36.578125 0.523438 32.671875 0.671875 L 32 0 L 32 -5.1875 L 32.671875 -5.859375 C 40.335938 -6.160156 45.332031 -6.609375 47.65625 -7.203125 C 49.988281 -7.804688 51.609375 -8.5625 52.515625 -9.46875 C 53.265625 -10.21875 53.75 -11.566406 53.96875 -13.515625 C 54.195312 -15.472656 54.3125 -18.929688 54.3125 -23.890625 L 54.3125 -116.96875 C 54.3125 -119.363281 54.273438 -123.191406 54.203125 -128.453125 C 54.128906 -133.710938 53.941406 -139.945312 53.640625 -147.15625 C 47.472656 -147.15625 42.472656 -147.117188 38.640625 -147.046875 C 34.816406 -146.972656 31.703125 -146.894531 29.296875 -146.8125 C 26.890625 -146.738281 24.5625 -146.554688 22.3125 -146.265625 C 19.300781 -145.960938 17.046875 -145.734375 15.546875 -145.578125 C 14.046875 -145.429688 12.921875 -144.984375 12.171875 -144.234375 C 11.722656 -143.773438 11.421875 -143.171875 11.265625 -142.421875 C 11.117188 -141.671875 10.894531 -140.242188 10.59375 -138.140625 L 8.78125 -120.796875 L 8.109375 -120.109375 L 2.921875 -120.109375 L 2.25 -120.796875 C 2.25 -127.253906 2.171875 -132.4375 2.015625 -136.34375 C 1.867188 -140.25 1.679688 -143.628906 1.453125 -146.484375 C 1.234375 -149.335938 0.972656 -152.265625 0.671875 -155.265625 Z M 0.671875 -155.265625 "/></g></g></g><g fill="#ffffff" fill-opacity="1"><g transform="translate(1605.679042, 947.85556)"><g><path d="M 94.65625 -158.65625 C 104.113281 -158.65625 112.148438 -157.976562 118.765625 -156.625 C 125.378906 -155.269531 131.050781 -153.914062 135.78125 -152.5625 C 140.507812 -151.21875 144.753906 -150.394531 148.515625 -150.09375 L 149.1875 -149.40625 C 147.53125 -144.601562 146.25 -139.644531 145.34375 -134.53125 C 144.445312 -129.425781 143.773438 -123.71875 143.328125 -117.40625 L 142.65625 -116.734375 L 137.921875 -116.734375 L 137.25 -117.40625 C 137.25 -122.664062 137.132812 -126.945312 136.90625 -130.25 C 136.675781 -133.5625 136.488281 -135.894531 136.34375 -137.25 C 130.476562 -142.050781 124.128906 -145.46875 117.296875 -147.5 C 110.460938 -149.53125 102.765625 -150.546875 94.203125 -150.546875 C 82.484375 -150.546875 71.816406 -147.914062 62.203125 -142.65625 C 52.585938 -137.394531 44.925781 -129.582031 39.21875 -119.21875 C 33.507812 -108.851562 30.65625 -96.082031 30.65625 -80.90625 C 30.65625 -72.644531 32.117188 -64.117188 35.046875 -55.328125 C 37.972656 -46.535156 42.441406 -38.421875 48.453125 -30.984375 C 54.460938 -23.546875 62.007812 -17.535156 71.09375 -12.953125 C 80.1875 -8.367188 90.894531 -6.078125 103.21875 -6.078125 C 111.78125 -6.078125 119.703125 -7.164062 126.984375 -9.34375 C 134.273438 -11.53125 141.523438 -15.398438 148.734375 -20.953125 L 150.765625 -19.15625 L 145.359375 -8.109375 C 138.148438 -3.898438 130.972656 -0.9375 123.828125 0.78125 C 116.691406 2.507812 108.617188 3.375 99.609375 3.375 C 86.234375 3.375 74.132812 1.382812 63.3125 -2.59375 C 52.5 -6.570312 43.222656 -12.164062 35.484375 -19.375 C 27.753906 -26.59375 21.820312 -34.96875 17.6875 -44.5 C 13.5625 -54.039062 11.5 -64.375 11.5 -75.5 C 11.5 -88.570312 13.410156 -99.835938 17.234375 -109.296875 C 21.066406 -118.765625 26.140625 -126.691406 32.453125 -133.078125 C 38.765625 -139.460938 45.640625 -144.53125 53.078125 -148.28125 C 60.515625 -152.039062 67.875 -154.707031 75.15625 -156.28125 C 82.445312 -157.863281 88.945312 -158.65625 94.65625 -158.65625 Z M 94.65625 -158.65625 "/></g></g></g><g clip-path="url(#20c3fce9da)"><g clip-path="url(#0ed9c13781)"><path fill="#ffffff" d="M 1492.757812 1012.496094 L 1532.820312 1012.496094 L 1532.820312 1052.558594 L 1492.757812 1052.558594 Z M 1492.757812 1012.496094 " fill-opacity="1" fill-rule="nonzero"/></g></g><g clip-path="url(#2082a0f12b)"><g clip-path="url(#92e847582d)"><path fill="#ffffff" d="M 1608.679688 860.292969 L 1648.742188 860.292969 L 1648.742188 900.355469 L 1608.679688 900.355469 Z M 1608.679688 860.292969 " fill-opacity="1" fill-rule="nonzero"/></g></g><g clip-path="url(#3a8ee248f0)"><g clip-path="url(#1f2d001480)"><path fill="#ffffff" d="M 1320.523438 860.292969 L 1360.585938 860.292969 L 1360.585938 900.355469 L 1320.523438 900.355469 Z M 1320.523438 860.292969 " fill-opacity="1" fill-rule="nonzero"/></g></g></svg>